{
  "cells": [
    {
      "cell_type": "markdown",
      "source": [
        "## **Mount with other Google Drive accounts.**"
      ],
      "metadata": {
        "id": "K5LvSv7b5bbb"
      }
    },
    {
      "cell_type": "code",
      "source": [
        "#@title Install Google Drive OCamlfuse silently and authorize your Google Drive account\n",
        "!sudo add-apt-repository -y ppa:alessandro-strada/ppa > /dev/null 2>&1\n",
        "!sudo apt-get update -qq\n",
        "!sudo apt-get install -y google-drive-ocamlfuse > /dev/null 2>&1\n",
        "\n",
        "# Mount Google Drive\n",
        "!google-drive-ocamlfuse > /dev/null 2>&1 &\n",
        "\n",
        "# Fetch and display the authorization link\n",
        "import re, sys\n",
        "output = !google-drive-ocamlfuse\n",
        "link = re.search(r'https?://accounts\\.google\\.com/[^ ]+', ' '.join(output))\n",
        "if link:\n",
        "    sys.stdout.write(link.group(0))\n",
        "else:\n",
        "    sys.stderr.write(\"The installation of OCamlfuse was unsuccessful! Google Colab Ubuntu's upgrade could be the root of the issue.\")"
      ],
      "metadata": {
        "cellView": "form",
        "id": "Ltr8ultwitsR"
      },
      "execution_count": null,
      "outputs": []
    },
    {
      "cell_type": "code",
      "source": [
        "#@title Mount Google Drive\n",
        "import os\n",
        "\n",
        "# Set debconf to noninteractive\n",
        "!echo 'debconf debconf/frontend select Noninteractive' | sudo debconf-set-selections\n",
        "\n",
        "# Install w3m browser and setup\n",
        "!sudo apt-get install -qq w3m\n",
        "\n",
        "# Suppress output for setting the browser, by redirecting to /dev/null\n",
        "!xdg-settings set default-web-browser w3m.desktop &> /dev/null\n",
        "\n",
        "# Mount Google Drive\n",
        "os.makedirs('/content/drive/MyDrive', exist_ok=True)\n",
        "!google-drive-ocamlfuse \"/content/drive/MyDrive\""
      ],
      "metadata": {
        "cellView": "form",
        "id": "U6xTGv7K5Lsx"
      },
      "execution_count": null,
      "outputs": []
    },
    {
      "cell_type": "markdown",
      "metadata": {
        "id": "0cKdTCuv4tXh"
      },
      "source": [
        "# 🟢 **Welcome to Fakers-Colab!**\n",
        "\n",
        "This is a ported version of FakersLab for Google Colab.\n",
        "\n",
        "\n",
        "# 🔴 ***Overview***\n",
        "*   Extraction works in full functionality.\n",
        "*   Training can be done without preview.\n",
        "*   Merger works in full functionality.\n",
        "*   You can import/export your workspace using Google Drive.\n",
        "*   Import/export and other manipulations with the workspace can be done in the \"Manage workspace\" block.\n",
        "*   Free runtimes can run for 6-10 hours. Fakers-Colab creates a backup of your workspace while trianing.\n",
        "*   Google doesn't favor long-term heavy calculations. Therefore, if you want to train for more than two sessions in a row, use two Google accounts. It is recommended to split your training across 2 accounts, but you can use one Google Drive account to store your workspace."
      ]
    },
    {
      "cell_type": "markdown",
      "metadata": {
        "id": "JuVn21kt40Gw"
      },
      "source": [
        "## ⚪ **Install or update FakersLab**\n",
        "\n",
        "* Install or update FakersLab directly from GitHub.\n",
        "* Requirements are automatically installed."
      ]
    },
    {
      "cell_type": "code",
      "execution_count": null,
      "metadata": {
        "cellView": "form",
        "id": "JG-f2WqT4fLK",
        "colab": {
          "base_uri": "https://localhost:8080/"
        },
        "outputId": "aec93f39-b9ef-4ee5-b458-11afcbd733a8"
      },
      "outputs": [
        {
          "output_type": "stream",
          "name": "stdout",
          "text": [
            "Cloning into 'FakersLab'...\n",
            "remote: Enumerating objects: 296, done.\u001b[K\n",
            "remote: Counting objects: 100% (296/296), done.\u001b[K\n",
            "remote: Compressing objects: 100% (266/266), done.\u001b[K\n",
            "remote: Total 296 (delta 29), reused 217 (delta 18), pack-reused 0\u001b[K\n",
            "Receiving objects: 100% (296/296), 256.48 MiB | 30.54 MiB/s, done.\n",
            "Resolving deltas: 100% (29/29), done.\n",
            "Updating files: 100% (251/251), done.\n",
            "Requirement already satisfied: tqdm in /usr/local/lib/python3.10/dist-packages (from -r /content/FakersLab/requirements-colab.txt (line 1)) (4.66.1)\n",
            "Requirement already satisfied: numexpr in /usr/local/lib/python3.10/dist-packages (from -r /content/FakersLab/requirements-colab.txt (line 3)) (2.9.0)\n",
            "Collecting ffmpeg-python==0.1.17 (from -r /content/FakersLab/requirements-colab.txt (line 6))\n",
            "  Downloading ffmpeg_python-0.1.17-py3-none-any.whl (20 kB)\n",
            "Collecting colorama (from -r /content/FakersLab/requirements-colab.txt (line 9))\n",
            "  Downloading colorama-0.4.6-py2.py3-none-any.whl (25 kB)\n",
            "Collecting tf2onnx==1.9.3 (from -r /content/FakersLab/requirements-colab.txt (line 11))\n",
            "  Downloading tf2onnx-1.9.3-py3-none-any.whl (435 kB)\n",
            "\u001b[2K     \u001b[90m━━━━━━━━━━━━━━━━━━━━━━━━━━━━━━━━━━━━━━━━\u001b[0m \u001b[32m435.4/435.4 kB\u001b[0m \u001b[31m8.5 MB/s\u001b[0m eta \u001b[36m0:00:00\u001b[0m\n",
            "\u001b[?25hCollecting tensorboardX (from -r /content/FakersLab/requirements-colab.txt (line 12))\n",
            "  Downloading tensorboardX-2.6.2.2-py2.py3-none-any.whl (101 kB)\n",
            "\u001b[2K     \u001b[90m━━━━━━━━━━━━━━━━━━━━━━━━━━━━━━━━━━━━━━━━\u001b[0m \u001b[32m101.7/101.7 kB\u001b[0m \u001b[31m8.3 MB/s\u001b[0m eta \u001b[36m0:00:00\u001b[0m\n",
            "\u001b[?25hCollecting crc32c (from -r /content/FakersLab/requirements-colab.txt (line 13))\n",
            "  Downloading crc32c-2.3.post0-cp310-cp310-manylinux_2_5_x86_64.manylinux1_x86_64.manylinux_2_17_x86_64.manylinux2014_x86_64.whl (43 kB)\n",
            "\u001b[2K     \u001b[90m━━━━━━━━━━━━━━━━━━━━━━━━━━━━━━━━━━━━━━━━\u001b[0m \u001b[32m43.2/43.2 kB\u001b[0m \u001b[31m6.7 MB/s\u001b[0m eta \u001b[36m0:00:00\u001b[0m\n",
            "\u001b[?25hRequirement already satisfied: jsonschema in /usr/local/lib/python3.10/dist-packages (from -r /content/FakersLab/requirements-colab.txt (line 14)) (4.19.2)\n",
            "Collecting PyYAML==6.0 (from -r /content/FakersLab/requirements-colab.txt (line 15))\n",
            "  Downloading PyYAML-6.0-cp310-cp310-manylinux_2_5_x86_64.manylinux1_x86_64.manylinux_2_12_x86_64.manylinux2010_x86_64.whl (682 kB)\n",
            "\u001b[2K     \u001b[90m━━━━━━━━━━━━━━━━━━━━━━━━━━━━━━━━━━━━━━━━\u001b[0m \u001b[32m682.2/682.2 kB\u001b[0m \u001b[31m13.5 MB/s\u001b[0m eta \u001b[36m0:00:00\u001b[0m\n",
            "\u001b[?25hCollecting yt-dlp (from -r /content/FakersLab/requirements-colab.txt (line 16))\n",
            "  Downloading yt_dlp-2023.12.30-py2.py3-none-any.whl (3.0 MB)\n",
            "\u001b[2K     \u001b[90m━━━━━━━━━━━━━━━━━━━━━━━━━━━━━━━━━━━━━━━━\u001b[0m \u001b[32m3.0/3.0 MB\u001b[0m \u001b[31m24.5 MB/s\u001b[0m eta \u001b[36m0:00:00\u001b[0m\n",
            "\u001b[?25hRequirement already satisfied: future in /usr/local/lib/python3.10/dist-packages (from ffmpeg-python==0.1.17->-r /content/FakersLab/requirements-colab.txt (line 6)) (0.18.3)\n",
            "Requirement already satisfied: numpy>=1.14.1 in /usr/local/lib/python3.10/dist-packages (from tf2onnx==1.9.3->-r /content/FakersLab/requirements-colab.txt (line 11)) (1.23.5)\n",
            "Collecting onnx>=1.4.1 (from tf2onnx==1.9.3->-r /content/FakersLab/requirements-colab.txt (line 11))\n",
            "  Downloading onnx-1.15.0-cp310-cp310-manylinux_2_17_x86_64.manylinux2014_x86_64.whl (15.7 MB)\n",
            "\u001b[2K     \u001b[90m━━━━━━━━━━━━━━━━━━━━━━━━━━━━━━━━━━━━━━━━\u001b[0m \u001b[32m15.7/15.7 MB\u001b[0m \u001b[31m69.6 MB/s\u001b[0m eta \u001b[36m0:00:00\u001b[0m\n",
            "\u001b[?25hRequirement already satisfied: requests in /usr/local/lib/python3.10/dist-packages (from tf2onnx==1.9.3->-r /content/FakersLab/requirements-colab.txt (line 11)) (2.31.0)\n",
            "Requirement already satisfied: six in /usr/local/lib/python3.10/dist-packages (from tf2onnx==1.9.3->-r /content/FakersLab/requirements-colab.txt (line 11)) (1.16.0)\n",
            "Collecting flatbuffers~=1.12 (from tf2onnx==1.9.3->-r /content/FakersLab/requirements-colab.txt (line 11))\n",
            "  Downloading flatbuffers-1.12-py2.py3-none-any.whl (15 kB)\n",
            "Requirement already satisfied: packaging in /usr/local/lib/python3.10/dist-packages (from tensorboardX->-r /content/FakersLab/requirements-colab.txt (line 12)) (23.2)\n",
            "Requirement already satisfied: protobuf>=3.20 in /usr/local/lib/python3.10/dist-packages (from tensorboardX->-r /content/FakersLab/requirements-colab.txt (line 12)) (3.20.3)\n",
            "Requirement already satisfied: attrs>=22.2.0 in /usr/local/lib/python3.10/dist-packages (from jsonschema->-r /content/FakersLab/requirements-colab.txt (line 14)) (23.2.0)\n",
            "Requirement already satisfied: jsonschema-specifications>=2023.03.6 in /usr/local/lib/python3.10/dist-packages (from jsonschema->-r /content/FakersLab/requirements-colab.txt (line 14)) (2023.12.1)\n",
            "Requirement already satisfied: referencing>=0.28.4 in /usr/local/lib/python3.10/dist-packages (from jsonschema->-r /content/FakersLab/requirements-colab.txt (line 14)) (0.33.0)\n",
            "Requirement already satisfied: rpds-py>=0.7.1 in /usr/local/lib/python3.10/dist-packages (from jsonschema->-r /content/FakersLab/requirements-colab.txt (line 14)) (0.17.1)\n",
            "Collecting mutagen (from yt-dlp->-r /content/FakersLab/requirements-colab.txt (line 16))\n",
            "  Downloading mutagen-1.47.0-py3-none-any.whl (194 kB)\n",
            "\u001b[2K     \u001b[90m━━━━━━━━━━━━━━━━━━━━━━━━━━━━━━━━━━━━━━━━\u001b[0m \u001b[32m194.4/194.4 kB\u001b[0m \u001b[31m30.1 MB/s\u001b[0m eta \u001b[36m0:00:00\u001b[0m\n",
            "\u001b[?25hCollecting pycryptodomex (from yt-dlp->-r /content/FakersLab/requirements-colab.txt (line 16))\n",
            "  Downloading pycryptodomex-3.20.0-cp35-abi3-manylinux_2_17_x86_64.manylinux2014_x86_64.whl (2.1 MB)\n",
            "\u001b[2K     \u001b[90m━━━━━━━━━━━━━━━━━━━━━━━━━━━━━━━━━━━━━━━━\u001b[0m \u001b[32m2.1/2.1 MB\u001b[0m \u001b[31m91.8 MB/s\u001b[0m eta \u001b[36m0:00:00\u001b[0m\n",
            "\u001b[?25hRequirement already satisfied: certifi in /usr/local/lib/python3.10/dist-packages (from yt-dlp->-r /content/FakersLab/requirements-colab.txt (line 16)) (2024.2.2)\n",
            "Requirement already satisfied: urllib3<3,>=1.26.17 in /usr/local/lib/python3.10/dist-packages (from yt-dlp->-r /content/FakersLab/requirements-colab.txt (line 16)) (2.0.7)\n",
            "Collecting websockets>=12.0 (from yt-dlp->-r /content/FakersLab/requirements-colab.txt (line 16))\n",
            "  Downloading websockets-12.0-cp310-cp310-manylinux_2_5_x86_64.manylinux1_x86_64.manylinux_2_17_x86_64.manylinux2014_x86_64.whl (130 kB)\n",
            "\u001b[2K     \u001b[90m━━━━━━━━━━━━━━━━━━━━━━━━━━━━━━━━━━━━━━━━\u001b[0m \u001b[32m130.2/130.2 kB\u001b[0m \u001b[31m20.7 MB/s\u001b[0m eta \u001b[36m0:00:00\u001b[0m\n",
            "\u001b[?25hCollecting brotli (from yt-dlp->-r /content/FakersLab/requirements-colab.txt (line 16))\n",
            "  Downloading Brotli-1.1.0-cp310-cp310-manylinux_2_5_x86_64.manylinux1_x86_64.manylinux_2_12_x86_64.manylinux2010_x86_64.whl (3.0 MB)\n",
            "\u001b[2K     \u001b[90m━━━━━━━━━━━━━━━━━━━━━━━━━━━━━━━━━━━━━━━━\u001b[0m \u001b[32m3.0/3.0 MB\u001b[0m \u001b[31m66.6 MB/s\u001b[0m eta \u001b[36m0:00:00\u001b[0m\n",
            "\u001b[?25hRequirement already satisfied: charset-normalizer<4,>=2 in /usr/local/lib/python3.10/dist-packages (from requests->tf2onnx==1.9.3->-r /content/FakersLab/requirements-colab.txt (line 11)) (3.3.2)\n",
            "Requirement already satisfied: idna<4,>=2.5 in /usr/local/lib/python3.10/dist-packages (from requests->tf2onnx==1.9.3->-r /content/FakersLab/requirements-colab.txt (line 11)) (3.6)\n",
            "Installing collected packages: flatbuffers, crc32c, brotli, websockets, tensorboardX, PyYAML, pycryptodomex, onnx, mutagen, ffmpeg-python, colorama, yt-dlp, tf2onnx\n",
            "  Attempting uninstall: flatbuffers\n",
            "    Found existing installation: flatbuffers 23.5.26\n",
            "    Uninstalling flatbuffers-23.5.26:\n",
            "      Successfully uninstalled flatbuffers-23.5.26\n",
            "  Attempting uninstall: PyYAML\n",
            "    Found existing installation: PyYAML 6.0.1\n",
            "    Uninstalling PyYAML-6.0.1:\n",
            "      Successfully uninstalled PyYAML-6.0.1\n",
            "\u001b[31mERROR: pip's dependency resolver does not currently take into account all the packages that are installed. This behaviour is the source of the following dependency conflicts.\n",
            "llmx 0.0.15a0 requires cohere, which is not installed.\n",
            "llmx 0.0.15a0 requires openai, which is not installed.\n",
            "llmx 0.0.15a0 requires tiktoken, which is not installed.\n",
            "tensorflow 2.15.0 requires flatbuffers>=23.5.26, but you have flatbuffers 1.12 which is incompatible.\u001b[0m\u001b[31m\n",
            "\u001b[0mSuccessfully installed PyYAML-6.0 brotli-1.1.0 colorama-0.4.6 crc32c-2.3.post0 ffmpeg-python-0.1.17 flatbuffers-1.12 mutagen-1.47.0 onnx-1.15.0 pycryptodomex-3.20.0 tensorboardX-2.6.2.2 tf2onnx-1.9.3 websockets-12.0 yt-dlp-2023.12.30\n",
            "Requirement already satisfied: scikit-image in /usr/local/lib/python3.10/dist-packages (0.19.3)\n",
            "Collecting scikit-image\n",
            "  Downloading scikit_image-0.22.0-cp310-cp310-manylinux_2_17_x86_64.manylinux2014_x86_64.whl (14.7 MB)\n",
            "\u001b[2K     \u001b[90m━━━━━━━━━━━━━━━━━━━━━━━━━━━━━━━━━━━━━━━━\u001b[0m \u001b[32m14.7/14.7 MB\u001b[0m \u001b[31m51.6 MB/s\u001b[0m eta \u001b[36m0:00:00\u001b[0m\n",
            "\u001b[?25hRequirement already satisfied: numpy>=1.22 in /usr/local/lib/python3.10/dist-packages (from scikit-image) (1.23.5)\n",
            "Requirement already satisfied: scipy>=1.8 in /usr/local/lib/python3.10/dist-packages (from scikit-image) (1.11.4)\n",
            "Requirement already satisfied: networkx>=2.8 in /usr/local/lib/python3.10/dist-packages (from scikit-image) (3.2.1)\n",
            "Requirement already satisfied: pillow>=9.0.1 in /usr/local/lib/python3.10/dist-packages (from scikit-image) (9.4.0)\n",
            "Requirement already satisfied: imageio>=2.27 in /usr/local/lib/python3.10/dist-packages (from scikit-image) (2.31.6)\n",
            "Requirement already satisfied: tifffile>=2022.8.12 in /usr/local/lib/python3.10/dist-packages (from scikit-image) (2024.1.30)\n",
            "Requirement already satisfied: packaging>=21 in /usr/local/lib/python3.10/dist-packages (from scikit-image) (23.2)\n",
            "Requirement already satisfied: lazy_loader>=0.3 in /usr/local/lib/python3.10/dist-packages (from scikit-image) (0.3)\n",
            "Installing collected packages: scikit-image\n",
            "  Attempting uninstall: scikit-image\n",
            "    Found existing installation: scikit-image 0.19.3\n",
            "    Uninstalling scikit-image-0.19.3:\n",
            "      Successfully uninstalled scikit-image-0.19.3\n",
            "Successfully installed scikit-image-0.22.0\n",
            "\n",
            "Done!\n"
          ]
        }
      ],
      "source": [
        "#@title Install or update FakersLab from Github\n",
        "\n",
        "Mode = \"install\" # @param [\"install\", \"update\", \"remove\"]\n",
        "Repository = \"MedicDoesStuff edition\" # @param [\"Official DFL\", \"Original faceshiftlabs repository\", \"MachineVideoEditor edition\", \"MedicDoesStuff edition\"]\n",
        "Branch_name = \"\" # @param {type:\"string\"}\n",
        "\n",
        "repositories = {\n",
        "  'Official DFL': 'iperov',\n",
        "  'Original faceshiftlabs repository': 'faceshiftlabs',\n",
        "  'MachineVideoEditor edition': 'MachineEditor',\n",
        "  'MedicDoesStuff edition': 'MedicDoesStuff'\n",
        "}\n",
        "\n",
        "from pathlib import Path\n",
        "if Mode == 'install':\n",
        "  branch_cmd = f\"-b {Branch_name} \" if Branch_name else \"\"\n",
        "  !git clone {branch_cmd}--depth 1 https://github.com/{repositories[Repository]}/FakersLab.git\n",
        "  data = Path(\"/usr/lib/python3.10/multiprocessing/resource_tracker.py\").read_text().replace('if cache:', 'if False:')\n",
        "  Path(\"/usr/lib/python3.10/multiprocessing/resource_tracker.py\").write_text(data)\n",
        "elif Mode == 'update':\n",
        "  %cd /content/FakersLab\n",
        "  !git pull\n",
        "elif Mode == 'remove':\n",
        "  if input(\"Are you sure you want to delete FakersLab folder? (y/n)\").lower().strip() == \"y\":\n",
        "    %cd /content\n",
        "    %rm -r FakersLab/\n",
        "    print(\"Done!\")\n",
        "  else:\n",
        "    print(\"Cancelled...\")\n",
        "\n",
        "if Mode != 'remove':\n",
        "  !pip install -r /content/FakersLab/requirements-colab.txt\n",
        "  !pip install --upgrade scikit-image\n",
        "\n",
        "  Path(\"/content/workspace\").mkdir(parents=True, exist_ok=True)\n",
        "  for subdir in [\"data_src\", \"data_src/aligned\", \"data_dst\", \"data_dst/aligned\", \"model\"]:\n",
        "    Path(f\"/content/workspace/{subdir}\").mkdir(parents=True, exist_ok=True)\n",
        "\n",
        "print(\"\\nDone!\")"
      ]
    },
    {
      "cell_type": "markdown",
      "metadata": {
        "id": "hqwOlJG4MdLC"
      },
      "source": [
        "## ⚪ **Manage workspace**\n",
        "\n",
        "\n",
        "\n",
        "*   You can import/export the workspace or individual data, such as model files, using Google Drive.\n",
        "*   You can clear the entire workspace or delete specific parts of it.\n",
        "\n"
      ]
    },
    {
      "cell_type": "code",
      "execution_count": null,
      "metadata": {
        "cellView": "form",
        "id": "y1Xl_HH2VAiw"
      },
      "outputs": [],
      "source": [
        "#@title Import from Drive\n",
        "\n",
        "Mode = \"workspace\" #@param [\"workspace\", \"data_src\", \"data_dst\", \"data_src aligned\", \"data_dst aligned\", \"models\"]\n",
        "Archive_name = \"workspace.zip\" #@param {type:\"string\"}\n",
        "\n",
        "def zip_and_copy(path, archive_name):\n",
        "    print(f\"Copying {archive_name} to {path} and unzipping...\")\n",
        "    %cd $path\n",
        "    !cp /content/drive/MyDrive/$archive_name $path\n",
        "    !unzip -q $archive_name\n",
        "    !rm $archive_name\n",
        "\n",
        "paths = {\n",
        "    \"workspace\": \"/content\",\n",
        "    \"data_src\": \"/content/workspace\",\n",
        "    \"data_dst\": \"/content/workspace\",\n",
        "    \"data_src aligned\": \"/content/workspace/data_src\",\n",
        "    \"data_dst aligned\": \"/content/workspace/data_dst\",\n",
        "    \"models\": \"/content/workspace\"\n",
        "}\n",
        "\n",
        "zip_and_copy(paths.get(Mode, \"/content\"), Archive_name)\n",
        "print(\"Done!\")"
      ]
    },
    {
      "cell_type": "code",
      "execution_count": null,
      "metadata": {
        "cellView": "form",
        "id": "0Y3WfuwoNXqC"
      },
      "outputs": [],
      "source": [
        "#@title Export to Drive { form-width: \"30%\" }\n",
        "\n",
        "Mode = \"workspace\" #@param [\"workspace\", \"data_src\", \"data_dst\", \"data_src aligned\", \"data_dst aligned\", \"merged\", \"merged_mask\", \"models\", \"result video\", \"result_mask video\"]\n",
        "Archive_name = \"workspace.zip\" #@param {type:\"string\"}\n",
        "\n",
        "def zip_and_copy(path, archive_name):\n",
        "  print(f\"Zipping {archive_name} at {path}...\")\n",
        "\n",
        "  %cd $path\n",
        "  !zip -0 -r -q $archive_name $path\n",
        "  print(\"Copying...\")\n",
        "  !cp $archive_name /content/drive/MyDrive/\n",
        "  !rm $archive_name\n",
        "\n",
        "paths = {\n",
        "    \"workspace\": \"/content\",\n",
        "    \"data_src\": \"/content/workspace\",\n",
        "    \"data_dst\": \"/content/workspace\",\n",
        "    \"data_src aligned\": \"/content/workspace/data_src\",\n",
        "    \"data_dst aligned\": \"/content/workspace/data_dst\",\n",
        "    \"merged\": \"/content/workspace/data_dst\",\n",
        "    \"merged_mask\": \"/content/workspace/data_dst\",\n",
        "    \"models\": \"/content/workspace\"\n",
        "}\n",
        "\n",
        "if Mode in paths:\n",
        "    zip_and_copy(paths[Mode], Mode)\n",
        "elif Mode == \"result video\":\n",
        "    !cp /content/workspace/result.mp4 /content/drive/MyDrive/\n",
        "elif Mode == \"result_mask video\":\n",
        "    !cp /content/workspace/result_mask.mp4 /content/drive/MyDrive/\n",
        "\n",
        "print(\"Done!\")"
      ]
    },
    {
      "cell_type": "code",
      "execution_count": null,
      "metadata": {
        "cellView": "form",
        "id": "Ta6ue_UGMkki"
      },
      "outputs": [],
      "source": [
        "#@title Delete and recreate\n",
        "Mode = \"Delete and recreate workspace\" #@param [\"Delete and recreate workspace\", \"Delete models\", \"Delete data_src\", \"Delete data_src aligned\", \"Delete data_src video\", \"Delete data_dst\", \"Delete data_dst aligned\", \"Delete merged frames\"]\n",
        "\n",
        "%cd \"/content\"\n",
        "\n",
        "if Mode == \"Delete and recreate workspace\":\n",
        "  cmd = \"rm -r /content/workspace ; mkdir /content/workspace; mkdir /content/workspace/data_src; mkdir /content/workspace/data_src/aligned; mkdir /content/workspace/data_dst; mkdir /content/workspace/data_dst/aligned; mkdir /content/workspace/model\"\n",
        "elif Mode == \"Delete models\":\n",
        "  cmd = \"rm -r /content/workspace/model/*\"\n",
        "elif Mode == \"Delete data_src\":\n",
        "  cmd = \"rm /content/workspace/data_src/*.png || rm -r /content/workspace/data_src/*.jpg\"\n",
        "elif Mode == \"Delete data_src aligned\":\n",
        "  cmd = \"rm -r /content/workspace/data_src/aligned/*\"\n",
        "elif Mode == \"Delete data_src video\":\n",
        "  cmd = \"rm -r /content/workspace/data_src.*\"\n",
        "elif Mode == \"Delete data_dst\":\n",
        "  cmd = \"rm /content/workspace/data_dst/*.png || rm /content/workspace/data_dst/*.jpg\"\n",
        "elif Mode == \"Delete data_dst aligned\":\n",
        "  cmd = \"rm -r /content/workspace/data_dst/aligned/*\"\n",
        "elif Mode == \"Delete merged frames\":\n",
        "  cmd = \"rm -r /content/workspace/data_dst/merged; rm -r /content/workspace/data_dst/merged_mask\"\n",
        "\n",
        "answer = input(\"Are you sure you want to \" + Mode + \"? (y/n)\")\n",
        "while answer not in [\"y\", \"n\"]:\n",
        "  print(\"Invalid input\")\n",
        "  answer = input(\"Are you sure you want to \" + Mode + \"? (y/n)\")\n",
        "\n",
        "if answer == \"y\":\n",
        "  !$cmd\n",
        "  print(\"Done!\")\n",
        "else:\n",
        "  print(\"Cancelled...\")"
      ]
    },
    {
      "cell_type": "markdown",
      "metadata": {
        "id": "tUNVcbujhm00"
      },
      "source": [
        "## ⚪ **Extract, sorting and faceset tools**\n",
        "* Extract frames from the SRC or DST video.\n",
        "* Denoise the SRC or DST video. The \"factor\" parameter sets the intensity of denoising.\n",
        "* Detect and align faces. If needed, you can obtain frames with debug landmarks.\n",
        "* Export the workspace to Google Drive after extracting and sorting it manually (in the \"Manage workspace\" block).\n",
        "* You can enhance your facesets with FLEnhancer.\n",
        "* Resize the faceset to match your model's resolution. Resizing during training in Colab increases iteration time, but faceset resizing reduces it by about 2 times. Keep the original faceset saved on your PC.\n",
        "* Pack or unpack facesets with FL packing tool.\n",
        "* Apply or remove a trained XSeg model to the extracted faces.\n",
        "* It is recommended to use the Generic XSeg model for automatic segmentation."
      ]
    },
    {
      "cell_type": "code",
      "execution_count": null,
      "metadata": {
        "cellView": "form",
        "id": "qwJEbz5Nhot0",
        "colab": {
          "base_uri": "https://localhost:8080/"
        },
        "outputId": "4d8148c7-ee5f-4045-9af5-3ea598c24c11"
      },
      "outputs": [
        {
          "output_type": "stream",
          "name": "stdout",
          "text": [
            "/content\n",
            "\n",
            "jpg\n",
            "                                                               #####                                                                                       .##############*                                                                                      ###############(###                                                               **           ##*#########/(############                                                            /&&&&%*      ######### ##   (# #######                                                              /&&&&&&&&&/, (####### #       #*######                                                              *&&&&&&&&&&&&&#/#####.#(      # #########                                                           *&&&&&&&&&&&&&%%%%%((## /#### ##########                                                     ###    *&%%%%%%%%&&&&%%%%%%%%%#(###########                                                     ########(##(%%%%%%%%&&&&&&&&&&&%%%%%%%#(######.                                                     /##########(%%%%%%%%%%%&&%%%%&&&%%%%%&&&&%%(#*                                                       ##########(%%%%%%%%%%%%%%%%%%&&&&&&&&&&&&#.                                                   ##. ###########(/&&&&%%%%%%%%%%%%%%%&&&&&&&/                                                       ############# (##/&&&&%%&%%%%%%%%%&&&&&%*                                                          .############ #   *&&&&&&%%&%%%%%%%%(,                                                               *########## ##   *&&&&&&&%&%%%%(#####(                                                                  ######## #   *&&&&&&%%#(###########                                                                 ######### ###*&&&&#( #############,                                                              ################  .  ###########                                                                     #############################(                                                                        ###  *######################                                                                                ####################.                                                                              *#######*      ###                                                  \n",
            "You are using Machine Video Editor community fork\n",
            "Join us in discord, invite link https://discord.gg/KBQB8x9K5c\n",
            "Commercial inquires send to ognjen@syntheticfactory.com (shared with the group)\n",
            "Support us via donation https://www.paypal.me/ognjenjaric or patreon https://www.patreon.com/machineeditor\n",
            "If you would like to contribute we are looking for more members, apply via discord!\n",
            "\n",
            "[0] Enter FPS ( ?:help ) : 0\n",
            "[png] Output image format ( png/jpg ?:help ) : jpg\n",
            "ffmpeg version 4.4.2-0ubuntu0.22.04.1 Copyright (c) 2000-2021 the FFmpeg developers\n",
            "  built with gcc 11 (Ubuntu 11.2.0-19ubuntu1)\n",
            "  configuration: --prefix=/usr --extra-version=0ubuntu0.22.04.1 --toolchain=hardened --libdir=/usr/lib/x86_64-linux-gnu --incdir=/usr/include/x86_64-linux-gnu --arch=amd64 --enable-gpl --disable-stripping --enable-gnutls --enable-ladspa --enable-libaom --enable-libass --enable-libbluray --enable-libbs2b --enable-libcaca --enable-libcdio --enable-libcodec2 --enable-libdav1d --enable-libflite --enable-libfontconfig --enable-libfreetype --enable-libfribidi --enable-libgme --enable-libgsm --enable-libjack --enable-libmp3lame --enable-libmysofa --enable-libopenjpeg --enable-libopenmpt --enable-libopus --enable-libpulse --enable-librabbitmq --enable-librubberband --enable-libshine --enable-libsnappy --enable-libsoxr --enable-libspeex --enable-libsrt --enable-libssh --enable-libtheora --enable-libtwolame --enable-libvidstab --enable-libvorbis --enable-libvpx --enable-libwebp --enable-libx265 --enable-libxml2 --enable-libxvid --enable-libzimg --enable-libzmq --enable-libzvbi --enable-lv2 --enable-omx --enable-openal --enable-opencl --enable-opengl --enable-sdl2 --enable-pocketsphinx --enable-librsvg --enable-libmfx --enable-libdc1394 --enable-libdrm --enable-libiec61883 --enable-chromaprint --enable-frei0r --enable-libx264 --enable-shared\n",
            "  libavutil      56. 70.100 / 56. 70.100\n",
            "  libavcodec     58.134.100 / 58.134.100\n",
            "  libavformat    58. 76.100 / 58. 76.100\n",
            "  libavdevice    58. 13.100 / 58. 13.100\n",
            "  libavfilter     7.110.100 /  7.110.100\n",
            "  libswscale      5.  9.100 /  5.  9.100\n",
            "  libswresample   3.  9.100 /  3.  9.100\n",
            "  libpostproc    55.  9.100 / 55.  9.100\n",
            "Input #0, mov,mp4,m4a,3gp,3g2,mj2, from '/content/workspace/data_dst.mp4':\n",
            "  Metadata:\n",
            "    major_brand     : isom\n",
            "    minor_version   : 512\n",
            "    compatible_brands: isomiso2avc1mp41\n",
            "    encoder         : Lavf58.29.100\n",
            "    comment         : #[1080x1920][50.00fps][9808k][317k][T][7][tv=b0a3_atla][audioGain=1.1431][uploadSource=APP][p=xXqRXvZxiZ1PZVcPO3jcTA==]\n",
            "  Duration: 00:00:15.10, start: 0.000000, bitrate: 2392 kb/s\n",
            "  Stream #0:0(und): Video: h264 (High) (avc1 / 0x31637661), yuv420p(tv, bt709), 720x1280, 2287 kb/s, 50 fps, 50 tbr, 12800 tbn, 100 tbc (default)\n",
            "    Metadata:\n",
            "      handler_name    : VideoHandler\n",
            "      vendor_id       : [0][0][0][0]\n",
            "  Stream #0:1(eng): Audio: aac (HE-AAC) (mp4a / 0x6134706D), 44100 Hz, stereo, fltp, 96 kb/s (default)\n",
            "    Metadata:\n",
            "      handler_name    : #Mainconcept MP4 Sound Media Handler\n",
            "      vendor_id       : [0][0][0][0]\n",
            "Stream mapping:\n",
            "  Stream #0:0 -> #0:0 (h264 (native) -> mjpeg (native))\n",
            "Press [q] to stop, [?] for help\n",
            "\u001b[0;33mIncompatible pixel format 'rgb24' for codec 'mjpeg', auto-selecting format 'yuvj444p'\n",
            "\u001b[0m\u001b[1;34m[swscaler @ 0x5b33fb165c80] \u001b[0m\u001b[0;33mdeprecated pixel format used, make sure you did set range correctly\n",
            "\u001b[0mOutput #0, image2, to '/content/workspace/data_dst/%5d.jpg':\n",
            "  Metadata:\n",
            "    major_brand     : isom\n",
            "    minor_version   : 512\n",
            "    compatible_brands: isomiso2avc1mp41\n",
            "    comment         : #[1080x1920][50.00fps][9808k][317k][T][7][tv=b0a3_atla][audioGain=1.1431][uploadSource=APP][p=xXqRXvZxiZ1PZVcPO3jcTA==]\n",
            "    encoder         : Lavf58.76.100\n",
            "  Stream #0:0(und): Video: mjpeg, yuvj444p(pc, bt709, progressive), 720x1280, q=2-31, 200 kb/s, 50 fps, 50 tbn (default)\n",
            "    Metadata:\n",
            "      handler_name    : VideoHandler\n",
            "      vendor_id       : [0][0][0][0]\n",
            "      encoder         : Lavc58.134.100 mjpeg\n",
            "    Side data:\n",
            "      cpb: bitrate max/min/avg: 0/0/200000 buffer size: 0 vbv_delay: N/A\n",
            "frame=  755 fps= 72 q=2.0 Lsize=N/A time=00:00:15.10 bitrate=N/A speed=1.44x    \n",
            "video:80498kB audio:0kB subtitle:0kB other streams:0kB global headers:0kB muxing overhead: unknown\n",
            "Done.\n"
          ]
        }
      ],
      "source": [
        "#@title Extract frames\n",
        "Video = \"data_dst\" #@param [\"data_src\", \"data_dst\"]\n",
        "\n",
        "%cd \"/content\"\n",
        "\n",
        "cmd = \"FakersLab/main.py videoed extract-video\"\n",
        "\n",
        "if Video == \"data_dst\":\n",
        "  cmd+= \" --input-file workspace/data_dst.* --output-dir workspace/data_dst/\"\n",
        "else:\n",
        "  cmd+= \" --input-file workspace/data_src.* --output-dir workspace/data_src/\"\n",
        "\n",
        "!python $cmd"
      ]
    },
    {
      "cell_type": "code",
      "execution_count": null,
      "metadata": {
        "cellView": "form",
        "id": "nmq0Sj2bmq7d"
      },
      "outputs": [],
      "source": [
        "#@title Detect faces\n",
        "Data = \"data_src\" #@param [\"data_src\", \"data_dst\"]\n",
        "Detector = \"S3FD (whole face)\" #@param [\"S3FD\", \"S3FD (whole face)\"]\n",
        "Debug = False #@param {type:\"boolean\"}\n",
        "\n",
        "detect_type = \"s3fd\"\n",
        "dbg = \" --output-debug\" if Debug else \" --no-output-debug\"\n",
        "\n",
        "folder = \"workspace/\"+Data\n",
        "folder_aligned = folder+\"/aligned\"\n",
        "\n",
        "cmd = \"FakersLab/main.py extract --input-dir \"+folder+\" --output-dir \"+folder_aligned\n",
        "cmd+=\" --detector \"+detect_type+\" --force-gpu-idxs 0\"+dbg\n",
        "\n",
        "if \"whole face\" in Detector:\n",
        "  cmd+=\" --face-type whole_face\"\n",
        "%cd \"/content\"\n",
        "!python $cmd"
      ]
    },
    {
      "cell_type": "code",
      "execution_count": null,
      "metadata": {
        "cellView": "form",
        "id": "TRNxUFE6p6Eu"
      },
      "outputs": [],
      "source": [
        "#@title Sort aligned\n",
        "Data = \"data_src\" #@param [\"data_src\", \"data_dst\"]\n",
        "sort_type = \"hist\" #@param [\"blur\", \"motion-blur\", \"face-yaw\", \"face-pitch\", \"face-source-rect-size\", \"hist\", \"hist-dissim\", \"brightness\", \"hue\", \"black\", \"origname\", \"oneface\", \"final-by-blur\", \"final-by-size\", \"absdiff\"]\n",
        "\n",
        "cmd = \"FakersLab/main.py sort --input-dir workspace/\"+Data+\"/aligned --by \"+sort_type\n",
        "\n",
        "%cd \"/content\"\n",
        "!python $cmd"
      ]
    },
    {
      "cell_type": "code",
      "execution_count": null,
      "metadata": {
        "cellView": "form",
        "id": "O5MbnVDyXkP7"
      },
      "outputs": [],
      "source": [
        "#@title Faceset Enhancer\n",
        "Data = \"data_src\" #@param [\"data_src\", \"data_dst\"]\n",
        "\n",
        "data_path = \"/content/workspace/\"+Data+\"/aligned\"\n",
        "cmd = \"/content/FakersLab/main.py facesettool enhance --input-dir \"+data_path\n",
        "!python $cmd"
      ]
    },
    {
      "cell_type": "code",
      "execution_count": null,
      "metadata": {
        "cellView": "form",
        "id": "Hyg5SREuMx8Q"
      },
      "outputs": [],
      "source": [
        "#@title Resize faceset\n",
        "Data = \"data_src\" #@param [\"data_src\", \"data_dst\"]\n",
        "\n",
        "cmd = \"/content/FakersLab/main.py facesettool resize --input-dir /content/workspace/\" + \\\n",
        "      f\"{Data}/aligned\"\n",
        "\n",
        "!python $cmd"
      ]
    },
    {
      "cell_type": "code",
      "execution_count": null,
      "metadata": {
        "cellView": "form",
        "id": "ypLfPUNHZNEp"
      },
      "outputs": [],
      "source": [
        "#@title Pack/Unpack aligned faceset\n",
        "\n",
        "Folder = \"data_src\" #@param [\"data_src\", \"data_dst\"]\n",
        "Mode = \"unpack\" #@param [\"pack\", \"unpack\"]\n",
        "\n",
        "cmd = \"/content/FakersLab/main.py util --input-dir /content/workspace/\" + \\\n",
        "      f\"{Folder}/aligned --{Mode}-faceset\"\n",
        "\n",
        "!python $cmd"
      ]
    },
    {
      "cell_type": "code",
      "execution_count": null,
      "metadata": {
        "cellView": "form",
        "id": "-VVvtoBMGnrA"
      },
      "outputs": [],
      "source": [
        "#@title Apply or remove XSeg mask to the faces\n",
        "Mode = \"Apply mask\" # @param [\"Apply mask\", \"Remove mask\"]\n",
        "Data = \"data_src\" # @param [\"data_src\", \"data_dst\"]\n",
        "GenericXSeg = True # @param {type:\"boolean\"}\n",
        "\n",
        "from pathlib import Path\n",
        "\n",
        "mode_arg = 'apply' if Mode == \"Apply mask\" else 'remove'\n",
        "\n",
        "if GenericXSeg:\n",
        "    xseg_path = Path('/content/GenericXSeg')\n",
        "    if not xseg_path.exists():\n",
        "        print('Downloading Generic XSeg model ...')\n",
        "        xseg_url = 'https://cdn.discordapp.com/attachments/792165487760375858/878986010426490910/model_generic_xseg.zip'\n",
        "        xseg_path.mkdir(parents=True)\n",
        "        !wget -q --no-check-certificate $xseg_url -O /content/GenericXSeg.zip\n",
        "        !unzip -q /content/GenericXSeg.zip -d /content/GenericXSeg/\n",
        "        !rm /content/GenericXSeg.zip\n",
        "\n",
        "main_path = '/content/FakersLab/main.py'\n",
        "data_path = f'/content/workspace/{Data}/aligned'\n",
        "model_path = '/content/workspace/model' if not GenericXSeg else str(xseg_path)\n",
        "\n",
        "cmd = f'python {main_path} xseg {mode_arg} --input-dir {data_path} '\n",
        "cmd += f'--model-dir {model_path}' if mode_arg == 'apply' else ''\n",
        "\n",
        "!$cmd"
      ]
    },
    {
      "cell_type": "markdown",
      "metadata": {
        "id": "WTuyUxgdLA13"
      },
      "source": [
        "## ⚪ **Train model**\n",
        "\n",
        "* Choose your model type, but SAEHD is recommended for everyone.\n",
        "* Set model options in the output field.\n",
        "* You can manually preview by going to the model folder in the file manager and double-clicking on the PNG files.\n",
        "* Your workspace will be archived and uploaded to the mounted Drive after 11 hours from the start of the session.\n",
        "* If you select the \"Backup_every_hour\" option, your workspace will be backed up every hour.\n",
        "* You can also manually export your workspace in the \"Manage workspace\" block.\n",
        "* The \"Silent_Start\" option automatically starts with the best GPU and the last model you used."
      ]
    },
    {
      "cell_type": "code",
      "execution_count": null,
      "metadata": {
        "cellView": "form",
        "id": "E3MeOt_5Fbaz"
      },
      "outputs": [],
      "source": [
        "#@title Uptime\n",
        "import psutil, os, time\n",
        "\n",
        "p = psutil.Process(os.getpid())\n",
        "uptime = time.time() - p.create_time()\n",
        "print(f'Session in running from {int(uptime / 3600)} hours')"
      ]
    },
    {
      "cell_type": "code",
      "execution_count": null,
      "metadata": {
        "cellView": "form",
        "id": "k-ya_slpU9mZ"
      },
      "outputs": [],
      "source": [
        "#@title Training\n",
        "Model = \"SAEHD\" #@param [\"SAEHD\", \"AMP\", \"AMPLegacy\", \"Quick96\", \"XSeg\"]\n",
        "Train_only_src = False #@param {type:\"boolean\"}\n",
        "Archive_name_backup = \"workspace.zip\" #@param {type:\"string\"}\n",
        "Pretraining_dataset_path = '/content/pretrain/' #@param {type:\"string\"}\n",
        "Export_model_only = False #@param {type:\"boolean\"}\n",
        "Backup_every_specified_time = True #@param {type:\"boolean\"}\n",
        "backup_time = 1 #@param {type:\"number\"}\n",
        "Silent_Start = True #@param {type:\"boolean\"}\n",
        "\n",
        "%cd \"/content\"\n",
        "\n",
        "import psutil, os, time\n",
        "\n",
        "p = psutil.Process(os.getpid())\n",
        "uptime = time.time() - p.create_time()\n",
        "\n",
        "if Export_model_only:\n",
        "  if os.path.exists(Archive_name_backup) and not os.path.exists(Archive_name_backup.replace('.zip', '_model.zip')):\n",
        "    os.system(f\"rm {Archive_name_backup}\")\n",
        "    print('Full workspace archive deleted\\nCreating model archive...')\n",
        "    os.system('zip -0 -r -q '+Archive_name_backup.replace('.zip', '_model.zip')+' workspace/model')\n",
        "    print(\"Archive created!\")\n",
        "  elif not os.path.exists(Archive_name_backup) and not os.path.exists(Archive_name_backup.replace('.zip', '_model.zip')):\n",
        "    print('Creating model archive...')\n",
        "    os.system('zip -0 -r -q '+Archive_name_backup.replace('.zip', '_model.zip')+' workspace/model')\n",
        "  else:\n",
        "    print('Archive exists')\n",
        "\n",
        "\n",
        "if Backup_every_specified_time and not Export_model_only:\n",
        "  if not os.path.exists(Archive_name_backup):\n",
        "    if os.path.exists(Archive_name_backup.replace('.zip', '_model.zip')):\n",
        "      print('Removing model archive...')\n",
        "      os.system(f\"rm {Archive_name_backup.replace('.zip', '_model.zip')}\")\n",
        "    print(\"Creating workspace archive ...\")\n",
        "    os.system('zip -0 -r -q '+Archive_name_backup+' workspace')\n",
        "    print(\"Archive created!\")\n",
        "  else:\n",
        "    print(\"Archive exists!\")\n",
        "\n",
        "if Backup_every_specified_time:\n",
        "  print(\"Time to end session: \"+str(round((43200-uptime)/3600))+\" hours\")\n",
        "  backup_time = str(backup_time * 3600)\n",
        "  if not Export_model_only:\n",
        "    backup_cmd = \" --execute-program -\"+backup_time+\" \\\"import os; os.system('zip -0 -r -q \"+Archive_name_backup+\" workspace/model'); os.system('cp /content/\"+Archive_name_backup+\" /content/drive/MyDrive/'); print('Backed up!') \\\"\"\n",
        "  else:\n",
        "    backup_cmd = \" --execute-program -\"+backup_time+\" \\\"import os; os.system('zip -0 -r -q \"+Archive_name_backup.replace('.zip', '_model.zip')+\" workspace/model'); os.system('cp /content/\"+Archive_name_backup.replace('.zip', '_model.zip') +\" /content/drive/My\\ Drive/'); print('Backed up!') \\\"\"\n",
        "elif (round(39600-uptime) > 0):\n",
        "  print(\"Time to backup: \"+str(round((39600-uptime)/3600))+\" hours\")\n",
        "  backup_time = str(round(39600-uptime))\n",
        "  if not Export_model_only:\n",
        "    backup_cmd = \" --execute-program -\"+backup_time+\" \\\"import os; os.system('zip -0 -r -q \"+Archive_name_backup+\" workspace'); os.system('cp /content/\"+Archive_name_backup+\" /content/drive/MyDrive/'); print('Backed up!') \\\"\"\n",
        "  else:\n",
        "    backup_cmd = \" --execute-program -\"+backup_time+\" \\\"import os; os.system('zip -0 -r -q \"+Archive_name_backup.replace('.zip', '_model.zip')+\" workspace/model'); os.system('cp /content/\"+Archive_name_backup.replace('.zip', '_model.zip') +\" /content/drive/My\\ Drive/'); print('Backed up!') \\\"\"\n",
        "else:\n",
        "  print(\"Session expires in less than an hour.\")\n",
        "  backup_cmd = \"\"\n",
        "\n",
        "if Train_only_src:\n",
        "  if Model not in [\"AMP\", \"AMPLegacy\"]:\n",
        "    answer = ''\n",
        "    print('The src-src training is only for AMP model. Do you want to continue anyway? (y/n)')\n",
        "    while True:\n",
        "      answer = input()\n",
        "      if answer == 'y':\n",
        "        cmd = \"FakersLab/main.py train --training-data-src-dir workspace/data_src/aligned --training-data-dst-dir workspace/data_src/aligned --pretraining-data-dir \" + Pretraining_dataset_path + \" --model-dir workspace/model --model \"+Model\n",
        "      elif answer == 'n':\n",
        "        cmd = \"FakersLab/main.py train --training-data-src-dir workspace/data_src/aligned --training-data-dst-dir workspace/data_dst/aligned --pretraining-data-dir \" + Pretraining_dataset_path + \" --model-dir workspace/model --model \"+Model\n",
        "      else:\n",
        "        print('Wrong value! Insert y or n:')\n",
        "      if answer in ['y', 'n']:\n",
        "        break\n",
        "  else:\n",
        "    cmd = \"FakersLab/main.py train --training-data-src-dir workspace/data_src/aligned --training-data-dst-dir workspace/data_src/aligned --pretraining-data-dir \" + Pretraining_dataset_path + \" --model-dir workspace/model --model \"+Model\n",
        "else:\n",
        "  cmd = \"FakersLab/main.py train --training-data-src-dir workspace/data_src/aligned --training-data-dst-dir workspace/data_dst/aligned --pretraining-data-dir \" + Pretraining_dataset_path + \" --model-dir workspace/model --model \"+Model\n",
        "\n",
        "if Model == \"Quick96\":\n",
        "  cmd += \" --pretrained-model-dir pretrain_Q96\"\n",
        "\n",
        "if Silent_Start:\n",
        "  cmd += \" --silent-start\"\n",
        "\n",
        "if (backup_cmd != \"\"):\n",
        "  train_cmd = (cmd+backup_cmd)\n",
        "else:\n",
        "  train_cmd = (cmd)\n",
        "\n",
        "!python $train_cmd"
      ]
    },
    {
      "cell_type": "markdown",
      "metadata": {
        "id": "avAcSL_uvtq_"
      },
      "source": [
        "## ⚪ **Merge frames**"
      ]
    },
    {
      "cell_type": "code",
      "execution_count": null,
      "metadata": {
        "cellView": "form",
        "id": "A3Y8K22Sv9Gn",
        "colab": {
          "base_uri": "https://localhost:8080/"
        },
        "outputId": "cb7a3b3b-c7e5-4c0d-e88f-11249139dd98"
      },
      "outputs": [
        {
          "output_type": "stream",
          "name": "stdout",
          "text": [
            "/content\n",
            "\n",
            "\n",
            "5\n",
            "                                                               #####                                                                                       .##############*                                                                                      ###############(###                                                               **           ##*#########/(############                                                            /&&&&%*      ######### ##   (# #######                                                              /&&&&&&&&&/, (####### #       #*######                                                              *&&&&&&&&&&&&&#/#####.#(      # #########                                                           *&&&&&&&&&&&&&%%%%%((## /#### ##########                                                     ###    *&%%%%%%%%&&&&%%%%%%%%%#(###########                                                     ########(##(%%%%%%%%&&&&&&&&&&&%%%%%%%#(######.                                                     /##########(%%%%%%%%%%%&&%%%%&&&%%%%%&&&&%%(#*                                                       ##########(%%%%%%%%%%%%%%%%%%&&&&&&&&&&&&#.                                                   ##. ###########(/&&&&%%%%%%%%%%%%%%%&&&&&&&/                                                       ############# (##/&&&&%%&%%%%%%%%%&&&&&%*                                                          .############ #   *&&&&&&%%&%%%%%%%%(,                                                               *########## ##   *&&&&&&&%&%%%%(#####(                                                                  ######## #   *&&&&&&%%#(###########                                                                 ######### ###*&&&&#( #############,                                                              ################  .  ###########                                                                     #############################(                                                                        ###  *######################                                                                                ####################.                                                                              *#######*      ###                                                  \n",
            "You are using Machine Video Editor community fork\n",
            "Join us in discord, invite link https://discord.gg/KBQB8x9K5c\n",
            "Commercial inquires send to ognjen@syntheticfactory.com (shared with the group)\n",
            "Support us via donation https://www.paypal.me/ognjenjaric or patreon https://www.patreon.com/machineeditor\n",
            "If you would like to contribute we are looking for more members, apply via discord!\n",
            "\n",
            "0\n",
            "\n",
            "Running merger.\n",
            "\n",
            "Choose one of saved models, or enter a name to create a new model.\n",
            "[r] : rename\n",
            "[d] : delete\n",
            "\n",
            "[0] : 288nomask - latest\n",
            " : 0\n",
            "Loading 288nomask_AMP model...\n",
            "\n",
            "Choose one or several GPU idxs (separated by comma).\n",
            "\n",
            "[CPU] : CPU\n",
            "  [0] : Tesla T4\n",
            "\n",
            "[0] Which GPU indexes to choose? : 0\n",
            "\n",
            "100\n",
            "\n",
            "\n",
            "\n",
            "\n",
            "\n",
            "\n",
            "\n",
            "\n",
            "\n",
            "\n",
            "\n",
            "\n",
            "\n",
            "\n",
            "\n",
            "\n",
            "\n",
            "\n",
            "Initializing models: 100% 4/4 [00:01<00:00,  2.81it/s]\n",
            "============= Model Summary ==============\n",
            "==                                      ==\n",
            "==            Model name: 288nomask_AMP ==\n",
            "==                                      ==\n",
            "==     Current iteration: 80770         ==\n",
            "==                                      ==\n",
            "==----------- Model Options ------------==\n",
            "==                                      ==\n",
            "==    retraining_samples: False         ==\n",
            "==            resolution: 288           ==\n",
            "==             face_type: wf            ==\n",
            "==     models_opt_on_gpu: True          ==\n",
            "==               ae_dims: 288           ==\n",
            "==            inter_dims: 1024          ==\n",
            "==                e_dims: 72            ==\n",
            "==                d_dims: 72            ==\n",
            "==           d_mask_dims: 22            ==\n",
            "==          morph_factor: 0.5           ==\n",
            "==       masked_training: True          ==\n",
            "==             eyes_prio: False         ==\n",
            "==            mouth_prio: False         ==\n",
            "==           uniform_yaw: True          ==\n",
            "==         loss_function: SSIM          ==\n",
            "==         blur_out_mask: True          ==\n",
            "==             adabelief: True          ==\n",
            "==            lr_dropout: y             ==\n",
            "==           random_warp: True          ==\n",
            "==      random_hsv_power: 0.0           ==\n",
            "==     random_downsample: False         ==\n",
            "==          random_noise: False         ==\n",
            "==           random_blur: False         ==\n",
            "==           random_jpeg: False         ==\n",
            "==         random_shadow: none          ==\n",
            "==      background_power: 0.0           ==\n",
            "==               ct_mode: none          ==\n",
            "==          random_color: False         ==\n",
            "==              clipgrad: False         ==\n",
            "==              use_fp16: False         ==\n",
            "==               cpu_cap: 8             ==\n",
            "==       preview_samples: 4             ==\n",
            "==    force_full_preview: True          ==\n",
            "==                    lr: 5e-05         ==\n",
            "==       autobackup_hour: 0             ==\n",
            "==          session_name:               ==\n",
            "==     maximum_n_backups: 24            ==\n",
            "== write_preview_history: False         ==\n",
            "==           target_iter: 0             ==\n",
            "==       random_src_flip: False         ==\n",
            "==       random_dst_flip: False         ==\n",
            "==            batch_size: 4             ==\n",
            "==             gan_power: 0.0           ==\n",
            "==        gan_patch_size: 40            ==\n",
            "==              gan_dims: 16            ==\n",
            "==         gan_smoothing: 0.3           ==\n",
            "==             gan_noise: 0.06          ==\n",
            "==            preview_mf: 1             ==\n",
            "==                                      ==\n",
            "==------------- Running On -------------==\n",
            "==                                      ==\n",
            "==          Device index: 0             ==\n",
            "==                  Name: Tesla T4      ==\n",
            "==                  VRAM: 13.62GB       ==\n",
            "==                                      ==\n",
            "==========================================\n",
            "Choose mode: \n",
            "(0) original\n",
            "(1) overlay\n",
            "(2) hist-match\n",
            "(3) seamless\n",
            "(4) seamless-hist-match\n",
            "(5) raw-rgb\n",
            "(6) raw-predict\n",
            "\n",
            "[1] : 5\n",
            "Choose mask mode: \n",
            "(0) full\n",
            "(1) dst\n",
            "(2) learned-prd\n",
            "(3) learned-dst\n",
            "(4) learned-prd*learned-dst\n",
            "(5) learned-prd+learned-dst\n",
            "(6) XSeg-prd\n",
            "(7) XSeg-dst\n",
            "(8) XSeg-prd*XSeg-dst\n",
            "(9) XSeg-prd+XSeg-dst\n",
            "(10) learned-prd*learned-dst*XSeg-prd*XSeg-dst\n",
            "\n",
            "[1] : 0\n",
            "Choose two pass mode: \n",
            "(0) None\n",
            "(1) face\n",
            "(2) face+mask\n",
            "\n",
            "[0] : 0\n",
            "[0] Choose pre_sharpen power ( 0..100 ?:help ) : 100\n",
            "[100] Choose morph_power for moprhable models ( 0..100 ) : 100\n",
            "[0] Choose output face scale modifier ( -50..50 ) : 0\n",
            "Choose sharpen mode: \n",
            "(0) None\n",
            "(1) box\n",
            "(2) gaussian\n",
            "\n",
            "[0] ( ?:help ) : 0\n",
            "[0] Choose super resolution power ( 0..100 ?:help ) : 0\n",
            "\n",
            "[8] Number of workers? ( 1-2 ?:help ) : 8\n",
            "Collecting alignments: 100% 733/733 [00:12<00:00, 57.16it/s]\n",
            "Computing motion vectors: 100% 755/755 [00:00<00:00, 1147.28it/s]\n",
            "Running on CPU0.\n",
            "Running on CPU3.\n",
            "Running on CPU5.\n",
            "Running on CPU4.\n",
            "Running on CPU7.\n",
            "Running on CPU1.\n",
            "Running on CPU2.\n",
            "Running on CPU6.\n",
            "Merging:  96% 727/755 [02:02<00:04,  5.92it/s]\n",
            "\n",
            "no faces found for 00734.jpg, copying without faces\n",
            "Merging:  96% 728/755 [02:02<00:04,  5.93it/s]\n",
            "\n",
            "no faces found for 00735.jpg, copying without faces\n",
            "Merging:  97% 729/755 [02:02<00:04,  5.93it/s]\n",
            "\n",
            "no faces found for 00736.jpg, copying without faces\n",
            "Merging:  97% 730/755 [02:02<00:04,  5.94it/s]\n",
            "\n",
            "no faces found for 00737.jpg, copying without faces\n",
            "Merging:  97% 731/755 [02:02<00:04,  5.94it/s]\n",
            "\n",
            "no faces found for 00738.jpg, copying without faces\n",
            "Merging:  97% 734/755 [02:02<00:03,  5.97it/s]\n",
            "\n",
            "no faces found for 00741.jpg, copying without faces\n",
            "Merging:  97% 735/755 [02:02<00:03,  5.98it/s]\n",
            "\n",
            "no faces found for 00739.jpg, copying without faces\n",
            "\n",
            "\n",
            "no faces found for 00740.jpg, copying without faces\n",
            "\n",
            "\n",
            "no faces found for 00742.jpg, copying without faces\n",
            "Merging:  97% 736/755 [02:02<00:03,  5.98it/s]\n",
            "\n",
            "no faces found for 00743.jpg, copying without faces\n",
            "\n",
            "\n",
            "no faces found for 00744.jpg, copying without faces\n",
            "Merging:  98% 738/755 [02:03<00:02,  5.99it/s]\n",
            "\n",
            "no faces found for 00745.jpg, copying without faces\n",
            "Merging:  98% 739/755 [02:03<00:02,  6.00it/s]\n",
            "\n",
            "no faces found for 00746.jpg, copying without faces\n",
            "Merging:  98% 740/755 [02:03<00:02,  6.00it/s]\n",
            "\n",
            "no faces found for 00747.jpg, copying without faces\n",
            "Merging:  98% 741/755 [02:03<00:02,  6.01it/s]\n",
            "\n",
            "no faces found for 00748.jpg, copying without faces\n",
            "Merging:  98% 742/755 [02:03<00:02,  6.02it/s]\n",
            "\n",
            "no faces found for 00749.jpg, copying without faces\n",
            "Merging:  99% 744/755 [02:03<00:01,  6.04it/s]\n",
            "\n",
            "no faces found for 00750.jpg, copying without faces\n",
            "\n",
            "\n",
            "no faces found for 00751.jpg, copying without faces\n",
            "\n",
            "\n",
            "no faces found for 00752.jpg, copying without faces\n",
            "Merging:  99% 746/755 [02:03<00:01,  6.04it/s]\n",
            "\n",
            "no faces found for 00753.jpg, copying without faces\n",
            "Merging:  99% 747/755 [02:03<00:01,  6.05it/s]\n",
            "\n",
            "no faces found for 00754.jpg, copying without faces\n",
            "Merging:  99% 748/755 [02:03<00:01,  6.06it/s]\n",
            "\n",
            "no faces found for 00755.jpg, copying without faces\n",
            "Merging: 100% 755/755 [02:04<00:00,  6.09it/s]\n",
            "Done.\n"
          ]
        }
      ],
      "source": [
        "#@title Merge\n",
        "Model = \"AMP\" #@param [\"SAEHD\", \"AMP\", \"Quick96\" ]\n",
        "\n",
        "cmd = \"FakersLab/main.py merge --input-dir workspace/data_dst --output-dir workspace/data_dst/merged --output-mask-dir workspace/data_dst/merged_mask --aligned-dir workspace/data_dst/aligned --model-dir workspace/model --model \"+Model\n",
        "\n",
        "%cd \"/content\"\n",
        "!python $cmd"
      ]
    },
    {
      "cell_type": "code",
      "execution_count": null,
      "metadata": {
        "cellView": "form",
        "id": "JNeGfiZpxlnz",
        "colab": {
          "base_uri": "https://localhost:8080/"
        },
        "outputId": "d9588830-acd9-4a08-e67d-862f8843b9cb"
      },
      "outputs": [
        {
          "output_type": "stream",
          "name": "stdout",
          "text": [
            "                                                               #####                                                                                       .##############*                                                                                      ###############(###                                                               **           ##*#########/(############                                                            /&&&&%*      ######### ##   (# #######                                                              /&&&&&&&&&/, (####### #       #*######                                                              *&&&&&&&&&&&&&#/#####.#(      # #########                                                           *&&&&&&&&&&&&&%%%%%((## /#### ##########                                                     ###    *&%%%%%%%%&&&&%%%%%%%%%#(###########                                                     ########(##(%%%%%%%%&&&&&&&&&&&%%%%%%%#(######.                                                     /##########(%%%%%%%%%%%&&%%%%&&&%%%%%&&&&%%(#*                                                       ##########(%%%%%%%%%%%%%%%%%%&&&&&&&&&&&&#.                                                   ##. ###########(/&&&&%%%%%%%%%%%%%%%&&&&&&&/                                                       ############# (##/&&&&%%&%%%%%%%%%&&&&&%*                                                          .############ #   *&&&&&&%%&%%%%%%%%(,                                                               *########## ##   *&&&&&&&%&%%%%(#####(                                                                  ######## #   *&&&&&&%%#(###########                                                                 ######### ###*&&&&#( #############,                                                              ################  .  ###########                                                                     #############################(                                                                        ###  *######################                                                                                ####################.                                                                              *#######*      ###                                                  \n",
            "You are using Machine Video Editor community fork\n",
            "Join us in discord, invite link https://discord.gg/KBQB8x9K5c\n",
            "Commercial inquires send to ognjen@syntheticfactory.com (shared with the group)\n",
            "Support us via donation https://www.paypal.me/ognjenjaric or patreon https://www.patreon.com/machineeditor\n",
            "If you would like to contribute we are looking for more members, apply via discord!\n",
            "\n",
            "ffmpeg version 4.4.2-0ubuntu0.22.04.1 Copyright (c) 2000-2021 the FFmpeg developers\n",
            "  built with gcc 11 (Ubuntu 11.2.0-19ubuntu1)\n",
            "  configuration: --prefix=/usr --extra-version=0ubuntu0.22.04.1 --toolchain=hardened --libdir=/usr/lib/x86_64-linux-gnu --incdir=/usr/include/x86_64-linux-gnu --arch=amd64 --enable-gpl --disable-stripping --enable-gnutls --enable-ladspa --enable-libaom --enable-libass --enable-libbluray --enable-libbs2b --enable-libcaca --enable-libcdio --enable-libcodec2 --enable-libdav1d --enable-libflite --enable-libfontconfig --enable-libfreetype --enable-libfribidi --enable-libgme --enable-libgsm --enable-libjack --enable-libmp3lame --enable-libmysofa --enable-libopenjpeg --enable-libopenmpt --enable-libopus --enable-libpulse --enable-librabbitmq --enable-librubberband --enable-libshine --enable-libsnappy --enable-libsoxr --enable-libspeex --enable-libsrt --enable-libssh --enable-libtheora --enable-libtwolame --enable-libvidstab --enable-libvorbis --enable-libvpx --enable-libwebp --enable-libx265 --enable-libxml2 --enable-libxvid --enable-libzimg --enable-libzmq --enable-libzvbi --enable-lv2 --enable-omx --enable-openal --enable-opencl --enable-opengl --enable-sdl2 --enable-pocketsphinx --enable-librsvg --enable-libmfx --enable-libdc1394 --enable-libdrm --enable-libiec61883 --enable-chromaprint --enable-frei0r --enable-libx264 --enable-shared\n",
            "  libavutil      56. 70.100 / 56. 70.100\n",
            "  libavcodec     58.134.100 / 58.134.100\n",
            "  libavformat    58. 76.100 / 58. 76.100\n",
            "  libavdevice    58. 13.100 / 58. 13.100\n",
            "  libavfilter     7.110.100 /  7.110.100\n",
            "  libswscale      5.  9.100 /  5.  9.100\n",
            "  libswresample   3.  9.100 /  3.  9.100\n",
            "  libpostproc    55.  9.100 / 55.  9.100\n",
            "Input #0, image2pipe, from 'pipe:':\n",
            "  Duration: N/A, bitrate: N/A\n",
            "  Stream #0:0: Video: png, rgb24(pc), 720x1280, 50 fps, 50 tbr, 50 tbn, 50 tbc\n",
            "Input #1, mov,mp4,m4a,3gp,3g2,mj2, from '/content/workspace/data_dst.mp4':\n",
            "  Metadata:\n",
            "    major_brand     : isom\n",
            "    minor_version   : 512\n",
            "    compatible_brands: isomiso2avc1mp41\n",
            "    encoder         : Lavf58.29.100\n",
            "    comment         : #[1080x1920][50.00fps][9808k][317k][T][7][tv=b0a3_atla][audioGain=1.1431][uploadSource=APP][p=xXqRXvZxiZ1PZVcPO3jcTA==]\n",
            "  Duration: 00:00:15.10, start: 0.000000, bitrate: 2392 kb/s\n",
            "  Stream #1:0(und): Video: h264 (High) (avc1 / 0x31637661), yuv420p(tv, bt709), 720x1280, 2287 kb/s, 50 fps, 50 tbr, 12800 tbn, 100 tbc (default)\n",
            "    Metadata:\n",
            "      handler_name    : VideoHandler\n",
            "      vendor_id       : [0][0][0][0]\n",
            "  Stream #1:1(eng): Audio: aac (HE-AAC) (mp4a / 0x6134706D), 44100 Hz, stereo, fltp, 96 kb/s (default)\n",
            "    Metadata:\n",
            "      handler_name    : #Mainconcept MP4 Sound Media Handler\n",
            "      vendor_id       : [0][0][0][0]\n",
            "Stream mapping:\n",
            "  Stream #0:0 -> #0:0 (png (native) -> h264 (libx264))\n",
            "  Stream #1:1 -> #0:1 (aac (native) -> aac (native))\n",
            "\u001b[0;35m[image2pipe @ 0x57f411af9340] \u001b[0m\u001b[0;33mThread message queue blocking; consider raising the thread_queue_size option (current value: 8)\n",
            "\u001b[0m\u001b[1;36m[libx264 @ 0x57f411b2a640] \u001b[0musing cpu capabilities: MMX2 SSE2Fast SSSE3 SSE4.2 AVX FMA3 BMI2 AVX2 AVX512\n",
            "\u001b[1;36m[libx264 @ 0x57f411b2a640] \u001b[0mprofile High, level 3.2, 4:2:0, 8-bit\n",
            "\u001b[1;36m[libx264 @ 0x57f411b2a640] \u001b[0m264 - core 163 r3060 5db6aa6 - H.264/MPEG-4 AVC codec - Copyleft 2003-2021 - http://www.videolan.org/x264.html - options: cabac=1 ref=3 deblock=1:0:0 analyse=0x3:0x113 me=hex subme=7 psy=1 psy_rd=1.00:0.00 mixed_ref=1 me_range=16 chroma_me=1 trellis=1 8x8dct=1 cqm=0 deadzone=21,11 fast_pskip=1 chroma_qp_offset=-2 threads=3 lookahead_threads=1 sliced_threads=0 nr=0 decimate=1 interlaced=0 bluray_compat=0 constrained_intra=0 bframes=3 b_pyramid=2 b_adapt=1 b_bias=0 direct=1 weightb=1 open_gop=0 weightp=2 keyint=250 keyint_min=25 scenecut=40 intra_refresh=0 rc_lookahead=40 rc=abr mbtree=1 bitrate=4000 ratetol=1.0 qcomp=0.60 qpmin=0 qpmax=69 qpstep=4 ip_ratio=1.40 aq=1:1.00\n",
            "Output #0, mp4, to '/content/workspace/result.mp4':\n",
            "  Metadata:\n",
            "    encoder         : Lavf58.76.100\n",
            "  Stream #0:0: Video: h264 (avc1 / 0x31637661), yuv420p(tv, progressive), 720x1280, q=2-31, 4000 kb/s, 50 fps, 12800 tbn\n",
            "    Metadata:\n",
            "      encoder         : Lavc58.134.100 libx264\n",
            "    Side data:\n",
            "      cpb: bitrate max/min/avg: 0/0/4000000 buffer size: 0 vbv_delay: N/A\n",
            "  Stream #0:1(eng): Audio: aac (LC) (mp4a / 0x6134706D), 48000 Hz, stereo, fltp, 192 kb/s (default)\n",
            "    Metadata:\n",
            "      handler_name    : #Mainconcept MP4 Sound Media Handler\n",
            "      vendor_id       : [0][0][0][0]\n",
            "      encoder         : Lavc58.134.100 aac\n",
            "frame=  755 fps= 13 q=-1.0 Lsize=    7139kB time=00:00:15.11 bitrate=3869.6kbits/s speed=0.266x    \n",
            "video:6760kB audio:360kB subtitle:0kB other streams:0kB global headers:0kB muxing overhead: 0.275919%\n",
            "\u001b[1;36m[libx264 @ 0x57f411b2a640] \u001b[0mframe I:4     Avg QP:15.81  size: 36811\n",
            "\u001b[1;36m[libx264 @ 0x57f411b2a640] \u001b[0mframe P:194   Avg QP:20.48  size: 20279\n",
            "\u001b[1;36m[libx264 @ 0x57f411b2a640] \u001b[0mframe B:557   Avg QP:23.71  size:  5099\n",
            "\u001b[1;36m[libx264 @ 0x57f411b2a640] \u001b[0mconsecutive B-frames:  1.3%  0.8%  0.4% 97.5%\n",
            "\u001b[1;36m[libx264 @ 0x57f411b2a640] \u001b[0mmb I  I16..4: 35.1% 54.1% 10.8%\n",
            "\u001b[1;36m[libx264 @ 0x57f411b2a640] \u001b[0mmb P  I16..4:  5.4% 22.1%  1.6%  P16..4: 31.9% 14.5%  6.1%  0.0%  0.0%    skip:18.4%\n",
            "\u001b[1;36m[libx264 @ 0x57f411b2a640] \u001b[0mmb B  I16..4:  0.6%  2.0%  0.1%  B16..8: 36.4%  6.5%  1.0%  direct: 1.3%  skip:52.1%  L0:40.8% L1:50.3% BI: 8.9%\n",
            "\u001b[1;36m[libx264 @ 0x57f411b2a640] \u001b[0mfinal ratefactor: 18.52\n",
            "\u001b[1;36m[libx264 @ 0x57f411b2a640] \u001b[0m8x8 transform intra:74.3% inter:81.6%\n",
            "\u001b[1;36m[libx264 @ 0x57f411b2a640] \u001b[0mcoded y,uvDC,uvAC intra: 47.6% 42.6% 11.4% inter: 10.6% 8.3% 0.1%\n",
            "\u001b[1;36m[libx264 @ 0x57f411b2a640] \u001b[0mi16 v,h,dc,p: 22% 41%  8% 29%\n",
            "\u001b[1;36m[libx264 @ 0x57f411b2a640] \u001b[0mi8 v,h,dc,ddl,ddr,vr,hd,vl,hu: 22% 29% 29%  2%  4%  4%  4%  3%  3%\n",
            "\u001b[1;36m[libx264 @ 0x57f411b2a640] \u001b[0mi4 v,h,dc,ddl,ddr,vr,hd,vl,hu: 28% 20% 13%  4%  9%  9%  8%  5%  4%\n",
            "\u001b[1;36m[libx264 @ 0x57f411b2a640] \u001b[0mi8c dc,h,v,p: 62% 20% 15%  3%\n",
            "\u001b[1;36m[libx264 @ 0x57f411b2a640] \u001b[0mWeighted P-Frames: Y:5.7% UV:5.7%\n",
            "\u001b[1;36m[libx264 @ 0x57f411b2a640] \u001b[0mref P L0: 62.4% 16.3% 16.2%  5.0%  0.0%\n",
            "\u001b[1;36m[libx264 @ 0x57f411b2a640] \u001b[0mref B L0: 90.5%  7.8%  1.7%\n",
            "\u001b[1;36m[libx264 @ 0x57f411b2a640] \u001b[0mref B L1: 96.8%  3.2%\n",
            "\u001b[1;36m[libx264 @ 0x57f411b2a640] \u001b[0mkb/s:3666.92\n",
            "\u001b[1;36m[aac @ 0x57f411b08d80] \u001b[0mQavg: 660.114\n",
            "Done.\n",
            "cp: cannot create regular file '/content/drive/My Drive/': Not a directory\n"
          ]
        }
      ],
      "source": [
        "#@title Get result video\n",
        "Mode = \"result video\" #@param [\"result video\", \"result_mask video\"]\n",
        "Bitrate = 4 #@param {type:\"integer\"}\n",
        "Copy_to_Drive = True #@param {type:\"boolean\"}\n",
        "\n",
        "cmd = \"FakersLab/main.py videoed video-from-sequence --input-dir workspace/data_dst/merged --output-file workspace/result.mp4 --reference-file workspace/data_dst.mp4 --include-audio --bitrate \" + str(Bitrate)\n",
        "cmd_mask = \"FakersLab/main.py videoed video-from-sequence --input-dir workspace/data_dst/merged_mask --output-file workspace/result_mask.mp4 --reference-file workspace/data_dst.mp4 --bitrate \" +str(Bitrate)\n",
        "\n",
        "if Mode == \"result video\":\n",
        "  !python $cmd\n",
        "  if Copy_to_Drive:\n",
        "    !cp /content/workspace/result.mp4 /content/drive/My\\ Drive/\n",
        "elif Mode == \"result_mask video\":\n",
        "  !python $cmd_mask\n",
        "  if Copy_to_Drive:\n",
        "    !cp /content/workspace/result_mask.mp4 /content/drive/My\\ Drive/\n"
      ]
    }
  ],
  "metadata": {
    "accelerator": "GPU",
    "colab": {
      "collapsed_sections": [
        "K5LvSv7b5bbb",
        "JuVn21kt40Gw",
        "hqwOlJG4MdLC",
        "tUNVcbujhm00",
        "WTuyUxgdLA13",
        "avAcSL_uvtq_"
      ],
      "provenance": []
    },
    "kernelspec": {
      "display_name": "Python 3",
      "name": "python3"
    }
  },
  "nbformat": 4,
  "nbformat_minor": 0
}
